# xmcd
#
# Track frame offsets: 
#        150
#        5962
#        24955
#        26721
#        40694
#        55480
#        75237
#        93880
#        112279
#        128449
#        146173
#        165385
#        167036
#        189323
#        205360
#        208744
#        226069
#
# Disc length: 3296 seconds
#
# Revision: 2
# Processed by: cddbd v1.5.2PL0 Copyright (c) Steve Scherf et al.
# Submitted via: ExactAudioCopyFreeDBPlugin 1.0
#
DISCID=dc0cde11
DTITLE=Ashanti - Concrete Rose
DYEAR=2004
DGENRE=R&B
TTITLE0=Concrete Rose Intro
TTITLE1=Still Down Feat. T.I.
TTITLE2=Message to the Fans (skit)
TTITLE3=Only U
TTITLE4=Focus
TTITLE5=Don't Let Them
TTITLE6=Love Again
TTITLE7=Take Me Tonight Feat. Lloyd
TTITLE8=U
TTITLE9=Every Lil' Thing
TTITLE10=Turn It Up Feat. Ja Rule
TTITLE11=Buck 3000 (Skit)
TTITLE12=So Hot
TTITLE13=Don't Leave Me Alone (Ft. 7 Aurelius)
TTITLE14=Sister Stories (Ft. Shi Shi) (Skit)
TTITLE15=Freedom
TTITLE16=Wonderful (Remix) Feat. Ja Rule
EXTD=
EXTT0=
EXTT1=
EXTT2=
EXTT3=
EXTT4=
EXTT5=
EXTT6=
EXTT7=
EXTT8=
EXTT9=
EXTT10=
EXTT11=
EXTT12=
EXTT13=
EXTT14=
EXTT15=
EXTT16=
PLAYORDER=
